<svg xmlns="http://www.w3.org/2000/svg" viewBox="0 0 284 356" width="284" height="356">
	<defs>
		<clipPath clipPathUnits="userSpaceOnUse" id="cp1">
			<path d="M0 0L284 0L284 356L0 356Z" />
		</clipPath>
	</defs>
	<style>
		tspan { white-space:pre }
		.shp0 { fill: #9e765c } 
		.shp1 { fill: #2c2e35 } 
	</style>
	<g id="Page 1" clip-path="url(#cp1)">
		<path id="Path 1" class="shp0" d="M164.29,355.77c-0.01,-0.41 -0.02,-0.55 0,-1.04c0,-0.1 0,-0.24 0,-0.4c0.01,-0.42 0.02,-1 -0.03,-1.71c-0.05,-0.83 -0.19,-2.1 -0.74,-3.59c-0.5,-1.32 -1.29,-2.88 -3.25,-4.47c-0.47,-0.39 -0.95,-0.76 -1.42,-1.13c-1.3,-1.03 -2.54,-2 -3.57,-3.1c-0.09,-0.1 -0.22,-0.16 -0.36,-0.17c-0.54,-0.05 -0.98,0.13 -1.58,0.39c-0.11,0.05 -0.22,0.1 -0.34,0.14c0.23,1.79 0.02,3.23 -0.22,4.14c-0.42,1.61 -1.19,3.02 -2.28,4.19c-0.19,0.2 -0.36,0.35 -0.53,0.5c-0.09,0.08 -0.14,0.2 -0.12,0.32c0.15,1.27 0.07,2.48 -0.21,3.6c-0.21,0.77 -0.48,1.41 -0.88,1.86c-0.26,0.3 -0.25,0.28 -0.52,0.52c-0.18,0.16 -0.44,0.18 -0.63,-0.11c-0.14,-0.22 -0.16,-0.2 -0.36,-0.59c-0.19,-0.37 -0.46,-0.94 -0.79,-1.74c-0.14,-0.31 -0.29,-0.67 -0.47,-1.07c-0.65,-1.55 -1.55,-3.67 -3.31,-6.35c-0.61,-0.92 -1.22,-1.7 -1.75,-2.36l-1.02,-1.17c-0.64,-0.61 -1.2,-1.18 -1.7,-1.7l-0.11,-0.12c-0.08,0.74 -0.23,1.5 -0.47,2.27c-0.74,2.03 -1.56,3.45 -2.21,4.59c-0.18,0.31 -0.34,0.6 -0.49,0.88c-0.71,1.21 -1.21,2.14 -1.59,2.93c-0.35,0.74 -0.59,1.3 -0.74,1.67c-0.11,0.28 -0.17,0.41 -0.27,0.56c-0.19,0.28 -0.79,0.24 -1.07,-0.12c-0.28,-0.37 -0.85,-1.37 -1.07,-2.4c-0.22,-1.21 -0.11,-2.71 0.32,-4.23c0.25,-1.01 0.68,-2.11 1.14,-3.28c0.28,-0.72 0.57,-1.47 0.83,-2.22c0.28,-0.92 0.43,-1.91 0.44,-2.91c0,-0.23 -0.21,-0.42 -0.48,-0.42c-0.95,-0.02 -1.85,-0.21 -2.46,-0.52c-0.02,-0.01 -0.04,-0.02 -0.07,-0.03c-0.38,0.64 -0.87,1.21 -1.33,1.76c-0.48,0.56 -0.93,1.1 -1.28,1.69c-0.72,1.24 -0.39,2.47 0,3.9l0.14,0.52c0.11,0.44 -0.05,0.88 -0.42,1.15c-0.38,0.27 -0.87,0.26 -1.27,-0.01c-2.28,-1.55 -3.04,-3.79 -2.09,-6.15c0.3,-0.75 0.96,-1.58 1.64,-2.47l0.47,-0.6c0.11,-0.14 0.09,-0.27 0.05,-0.35c-0.07,-0.15 -0.22,-0.25 -0.42,-0.27c-0.73,-0.08 -1.49,-0.26 -2.33,-0.54c-0.17,-0.06 -0.34,-0.12 -0.52,-0.19c-0.2,0.77 -0.47,1.55 -0.81,2.32l-0.33,0.78c-0.79,1.86 -1.32,3.08 -1.34,4.01c-0.07,0.98 0.06,1.87 0.38,2.68c0.4,0.9 0.98,1.36 1.23,1.56c0.14,0.11 0.31,0.25 0.29,0.5c0,0 -0.03,0.25 -0.22,0.39c-0.19,0.13 -0.35,0.16 -0.9,0.23c-0.68,0.06 -1.69,-0.04 -2.8,-0.77c-1.35,-0.89 -2.34,-2.45 -2.71,-4.31c-0.34,-1.55 0,-3.23 0.54,-4.83c-0.43,0.63 -0.9,1.27 -1.41,1.94c-5.21,6.86 -8.31,6.76 -8.48,6.77c-0.17,0.02 -0.49,0.16 -0.46,-0.43c0.03,-0.59 -0.24,-2.98 4.58,-9.35c0.88,-1.17 1.78,-2.21 2.74,-3.18c-44.17,-7.69 -116.5,-33.65 -112.71,-121.14c1.59,-36.65 36.71,-67.09 65.89,-86.17c43.45,-28.4 69.73,-47.57 62.92,-82.34c-0.01,0 -1.97,-6.09 -2.81,-13.78c-0.77,-7.13 -0.71,-17.14 4.01,-24.36c3.8,-5.81 4.14,-6.15 4.76,-5.89c0.59,0.24 0.45,0.92 0,3.17c-0.66,3.32 -1.89,9.5 -0.64,15.27c0.8,3.69 1.68,6.97 2.53,10.15c1.95,7.28 3.79,14.15 3.89,23.57c0.16,15.6 1.67,23.5 35.79,47.29c6.03,4.2 13.33,8.66 21.06,13.39c36.46,22.28 86.38,52.8 86.4,106.54c0.01,34.8 -13.58,62.88 -40.39,83.46c-22.78,17.48 -50.71,25.99 -70.29,30.06l0.05,0.35c1.94,0.57 3.67,1.72 5.16,3.43c2.52,3.06 2.57,6.01 1.77,7.74c-0.29,0.72 -0.76,1.13 -1.02,1.35c-0.29,0.26 -0.44,0.33 -0.57,0.36c-0.13,0.03 -0.3,0.07 -0.48,-0.12c-0.19,-0.19 -0.19,-0.19 -0.37,-0.5c-0.07,-0.12 -0.15,-0.26 -0.24,-0.43c-0.12,-0.22 -0.26,-0.48 -0.44,-0.79l-0.18,-0.34c-0.55,-1.06 -1.29,-2.52 -2.88,-4.34c-0.32,-0.35 -0.64,-0.68 -0.94,-0.98c-0.19,-0.19 -0.45,-0.19 -0.62,-0.12c-0.09,0.03 -0.29,0.14 -0.31,0.38c-0.04,0.88 -0.23,1.77 -0.56,2.58c-0.23,0.63 -0.46,1.19 -0.67,1.7c-0.34,0.81 -0.6,1.46 -0.69,1.96c-0.18,0.86 0,1.66 0.19,2.18c0.42,1.15 1.16,2.16 2.25,3.1c0.13,0.1 0.26,0.2 0.4,0.3c0.53,0.39 0.72,1.04 0.46,1.62c-0.28,0.62 -0.96,0.96 -1.67,0.82c-0.23,-0.05 -0.47,-0.1 -0.73,-0.17c-0.94,-0.29 -1.8,-0.71 -2.57,-1.24c-0.15,-0.11 -0.35,-0.13 -0.52,-0.08c-0.08,0.03 -0.24,0.1 -0.29,0.27c-0.14,0.44 -0.32,0.85 -0.51,1.21c-0.49,0.87 -1.04,1.52 -1.65,1.96c-0.44,0.31 -0.7,0.39 -0.76,0.41c0,0 -0.57,0.26 -0.58,-0.15zM138.85,339.99l0.06,0.07c0.49,0.51 1.05,1.07 1.69,1.69l1.09,1.25c0.55,0.68 1.18,1.48 1.81,2.43c1.81,2.75 2.73,4.92 3.4,6.5c0.17,0.4 0.32,0.75 0.46,1.07c0.3,0.74 0.56,1.27 0.73,1.62c0.26,-0.36 0.47,-0.83 0.63,-1.41c0.25,-0.99 0.32,-2.09 0.18,-3.24c-0.05,-0.44 0.12,-0.87 0.45,-1.16c0.15,-0.13 0.3,-0.27 0.46,-0.43c0.97,-1.05 1.66,-2.31 2.04,-3.77c0.23,-0.89 0.43,-2.33 0.14,-4.14l-0.07,-0.42l0.4,-0.12c0.27,-0.09 0.46,-0.17 0.64,-0.25c0.64,-0.27 1.26,-0.52 2.04,-0.46c0.38,0.03 0.72,0.2 0.98,0.47c0.98,1.05 2.19,2 3.46,3.01c0.48,0.38 0.96,0.76 1.43,1.14c2.15,1.75 3.02,3.52 3.54,4.87c0.61,1.62 0.75,2.98 0.81,3.87c0.06,0.75 0.05,1.35 0.04,1.79c0,0.09 0,0.16 0,0.24c0.33,-0.27 0.76,-0.73 1.19,-1.5c0.16,-0.31 0.32,-0.67 0.44,-1.05c0.14,-0.42 0.47,-0.74 0.9,-0.89c0.47,-0.15 0.98,-0.08 1.38,0.2c0.68,0.48 1.45,0.85 2.28,1.11c0.22,0.06 0.44,0.11 0.65,0.15c0.32,0.07 0.52,-0.1 0.59,-0.26c0.04,-0.1 0.08,-0.29 -0.15,-0.46c-0.14,-0.11 -0.29,-0.22 -0.44,-0.34c-1.23,-1.05 -2.06,-2.2 -2.54,-3.51c-0.23,-0.64 -0.45,-1.62 -0.23,-2.68c0.1,-0.59 0.38,-1.28 0.74,-2.15c0.2,-0.49 0.43,-1.05 0.66,-1.67c0.29,-0.71 0.46,-1.52 0.5,-2.28c0.03,-0.55 0.38,-1.03 0.92,-1.24c0.57,-0.22 1.22,-0.09 1.65,0.34c0.31,0.31 0.64,0.65 0.98,1.03c1.67,1.92 2.45,3.44 3.01,4.54l0.16,0.32c0.17,0.3 0.32,0.57 0.44,0.79c0.08,0.15 0.15,0.28 0.22,0.39c0.24,-0.21 0.54,-0.48 0.74,-0.97c0.24,-0.53 1.26,-3.25 -1.62,-6.74c-1.43,-1.64 -3.1,-2.72 -4.97,-3.21l-0.31,-0.08l-0.27,-1.87l0.44,-0.09c96.04,-19.76 110.37,-79.07 110.36,-112.67c-0.01,-53.2 -49.68,-83.55 -85.94,-105.72c-7.74,-4.73 -15.06,-9.2 -21.11,-13.42c-34.51,-24.06 -36.04,-32.12 -36.21,-48.07c-0.1,-9.3 -1.84,-15.8 -3.85,-23.33c-0.85,-3.19 -1.74,-6.49 -2.54,-10.2c-1.29,-5.96 -0.03,-12.27 0.64,-15.66c0.1,-0.5 0.2,-1.01 0.27,-1.43c-0.81,1.07 -2.2,3.2 -3.29,4.86c-8.75,13.39 -1.16,37.13 -1.08,37.37c6.95,35.43 -19.53,54.77 -63.32,83.39c-28.99,18.95 -63.89,49.15 -65.45,85.4c-3.78,87.36 69.07,112.87 112.83,120.3l0.95,0.16l-0.69,0.66c-1.17,1.11 -2.25,2.33 -3.31,3.73c-3.38,4.47 -4.16,7.09 -4.34,8.14c1.01,-0.3 3.51,-1.5 7.16,-6.3c1.56,-2.05 2.77,-3.91 3.57,-5.52l0.16,-0.32l1.07,0.16l-0.12,0.56c-0.2,0.58 -0.45,1.21 -0.76,1.93c-0.94,2.22 -1.76,4.54 -1.34,6.46c0.45,2.28 1.76,3.35 2.3,3.7c0.74,0.49 1.42,0.62 1.88,0.63c-0.3,-0.33 -0.62,-0.77 -0.88,-1.35c-0.39,-0.96 -0.54,-2 -0.46,-3.1c0.02,-1.09 0.58,-2.39 1.42,-4.35l0.34,-0.79c0.39,-0.9 0.69,-1.81 0.89,-2.69l0.12,-0.55l0.52,0.2c0.34,0.13 0.68,0.26 1,0.37c0.78,0.26 1.47,0.43 2.13,0.5c0.54,0.06 0.99,0.39 1.19,0.85c0.19,0.44 0.12,0.93 -0.17,1.31l-0.48,0.61c-0.65,0.83 -1.26,1.61 -1.51,2.23c-0.78,1.93 -0.17,3.71 1.73,4.99c0.07,0.05 0.13,0.05 0.18,0.02c0.02,-0.01 0.06,-0.05 0.05,-0.12l-0.14,-0.51c-0.4,-1.5 -0.83,-3.05 0.1,-4.64c0.39,-0.67 0.89,-1.25 1.37,-1.83c0.53,-0.62 1.03,-1.21 1.38,-1.88c0.04,-0.11 0.06,-0.16 0.08,-0.21l0.3,-0.63l0.48,0.51c0.1,0.11 0.21,0.19 0.32,0.25c0.48,0.24 1.25,0.4 2.05,0.42c0.79,0.02 1.42,0.64 1.42,1.39c-0.01,1.1 -0.17,2.18 -0.49,3.21c-0.27,0.78 -0.57,1.55 -0.85,2.28c-0.45,1.14 -0.87,2.22 -1.11,3.17c-0.52,1.88 -0.41,3.19 -0.3,3.8c0.1,0.5 0.29,1.15 0.62,1.65c0.16,-0.38 0.39,-0.91 0.71,-1.59c0.39,-0.82 0.91,-1.76 1.62,-2.99c0.15,-0.27 0.32,-0.57 0.5,-0.88c0.64,-1.11 1.43,-2.49 2.13,-4.42c0.64,-2.09 0.63,-4.14 -0.03,-5.89l-0.26,-0.7l0.74,0.05c1.66,0.1 3.26,0.18 4.75,0.23l0.55,0.02l-0.09,0.54c-0.03,0.17 -0.08,0.33 -0.16,0.48l-0.07,0.14l-0.6,0.35c-0.11,0.07 -0.23,0.15 -0.45,0.33l-2.25,1.85c-0.01,0.01 -0.01,0.01 -0.02,0.02zM137.83,337.02c0.2,0.73 0.32,1.49 0.33,2.27l0.06,-0.04l2.29,-1.89c0.1,-0.08 0.18,-0.15 0.26,-0.2c-0.95,-0.04 -1.93,-0.09 -2.94,-0.15zM148.44,347.7c-0.06,-0.15 -0.47,-1.12 -0.47,-1.12c-0.39,-0.92 -0.81,-1.73 -1.32,-2.54c-0.6,-0.93 -1.34,-1.84 -2.26,-2.76c0,0 -0.85,-0.65 -1.16,-0.9c-0.32,-0.24 -0.87,-0.62 -0.33,-1.22c0.17,-0.19 1.28,-1.59 1.39,-2.43l0.06,-0.42l0.64,0c0,0 0.38,-0.02 1.09,-0.06l0.28,-0.02l0.31,0.46c0.46,0.69 0.9,1.34 1.2,2.02c0.8,1.66 1.19,3.45 1.2,5.48c0,0.74 -0.05,1.46 -0.17,2.27c0,0 -0.11,0.84 -0.18,1.16c-0.06,0.32 -0.21,0.22 -0.27,0.07zM143.81,339.56c0.21,0.06 1.24,1.03 1.24,1.03c0.98,0.98 1.76,1.94 2.4,2.93c0.23,0.36 0.44,0.72 0.63,1.08c0,-0.14 0.01,-0.27 0,-0.4c0,-1.88 -0.37,-3.54 -1.11,-5.08c-0.28,-0.61 -0.69,-1.23 -1.13,-1.89l0,0c-0.33,0.02 -0.56,0.03 -0.7,0.04c-0.22,0.84 -0.76,1.59 -1.34,2.29zM165.41,343c-0.41,0 -0.79,-0.15 -1.07,-0.44c-0.27,-0.27 -0.55,-0.54 -0.85,-0.78c-1.38,-1.14 -2.59,-1.97 -3.66,-2.7c-0.95,-0.65 -1.77,-1.21 -2.39,-1.79c-0.14,-0.12 -0.26,-0.25 -0.39,-0.37c-0.31,-0.31 -0.44,-0.76 -0.34,-1.19c0.02,-0.08 0.03,-0.16 0.04,-0.24l0.06,-0.35l0.35,-0.05c1.46,-0.2 3.03,-0.42 4.7,-0.68l0.09,-0.01l0.09,0.02c0.42,0.09 0.85,0.16 1.28,0.23l0.39,0.06c0.11,0.02 0.23,0.05 0.34,0.1c0.56,0.23 1.11,0.46 1.67,0.79c0.9,0.55 1.52,1.15 1.84,1.8c0.33,0.9 0.42,1.71 -0.1,3.1c-0.12,0.37 -0.29,0.79 -0.46,1.22l-0.15,0.37c-0.18,0.45 -0.59,0.78 -1.1,0.89c-0.11,0.02 -0.22,0.03 -0.32,0.03zM157.63,336c0,0.09 0.03,0.18 0.1,0.24c0.11,0.11 0.23,0.22 0.35,0.34c0.57,0.53 1.37,1.07 2.29,1.7c1.03,0.7 2.32,1.58 3.74,2.75c0.32,0.26 0.63,0.55 0.93,0.85c0.12,0.13 0.31,0.18 0.51,0.14c0.19,-0.04 0.33,-0.15 0.39,-0.3l0.15,-0.38c0.16,-0.41 0.32,-0.81 0.44,-1.19c0.48,-1.25 0.34,-1.82 0.13,-2.4c-0.22,-0.42 -0.73,-0.91 -1.45,-1.35c-0.5,-0.29 -1.01,-0.51 -1.54,-0.72c-0.05,-0.02 -0.09,-0.03 -0.13,-0.04l0,0l-0.38,-0.07c-0.41,-0.07 -0.83,-0.14 -1.23,-0.22c-1.51,0.24 -2.94,0.44 -4.28,0.63zM151.54,338.64l-0.2,-0.5c-0.03,-0.08 -0.51,-1.15 -0.78,-1.57l-0.41,-0.66l0.77,-0.08c0.73,-0.08 1.52,-0.16 2.37,-0.26l0.42,-0.05l0.13,0.52c0.02,0.08 0.04,0.16 0.06,0.25c0.11,0.34 0.07,0.7 -0.09,1.02c-0.17,0.33 -0.47,0.57 -0.84,0.68h0c-0.34,0.1 -0.66,0.23 -0.95,0.39zM151.77,336.71c0.11,0.2 0.2,0.39 0.29,0.58c0,0 0,0 0,0.01c0.2,-0.08 0.41,-0.16 0.63,-0.23c0.12,-0.04 0.22,-0.11 0.27,-0.21c0.03,-0.06 0.06,-0.16 0.03,-0.28c0,0 0,0 0,0c-0.42,0.05 -0.83,0.09 -1.22,0.13zM137.17,333.6c-1.88,0 -3.79,-0.11 -5.41,-0.42l0.18,-0.95c4.14,0.81 10.22,0.22 12.82,-0.03c0.38,-0.04 0.91,-0.08 0.91,-0.08l0.1,0.96c0,0 -0.56,0.05 -0.91,0.08c-1.63,0.16 -4.62,0.45 -7.68,0.45zM150.78,333.36l-0.28,-0.92c79.3,-23.51 114.9,-57.63 115.44,-110.63c0.25,-24.48 -7.99,-45.31 -25.17,-63.68c-14.69,-15.7 -33.44,-26.84 -48.5,-35.79c-3.24,-1.93 -6.31,-3.75 -9.17,-5.51c-29.63,-18.29 -43.83,-39.87 -43.97,-40.08l0.81,-0.52c0.14,0.21 14.23,21.62 43.66,39.79c2.86,1.76 5.91,3.58 9.16,5.5c15.12,8.98 33.93,20.16 48.71,35.96c17.36,18.56 25.68,39.61 25.43,64.35c-0.3,29.14 -11.27,52.56 -33.55,71.62c-18.58,15.89 -45.59,28.95 -82.58,39.92zM123.89,332.57l-0.3,-0.92c0.83,-0.27 1.82,-0.5 2.88,-0.75c3.54,-0.83 7.94,-1.87 8.37,-4.78l0.95,0.14c-0.52,3.55 -5.28,4.67 -9.1,5.58c-1.04,0.24 -2.02,0.48 -2.8,0.73zM112.14,331.14c-39.95,-9.56 -67.03,-24.07 -82.82,-44.37c-13.81,-17.77 -19.73,-40.71 -18.63,-72.21c1.52,-43.61 45.98,-73.01 75.4,-92.46c6.28,-4.15 11.7,-7.74 15.69,-10.82c8.51,-6.59 25.93,-28.4 28.67,-35.9l0.9,0.33c-2.78,7.61 -20.39,29.68 -28.99,36.34c-4.01,3.11 -9.45,6.7 -15.75,10.87c-29.25,19.35 -73.46,48.58 -74.97,91.7c-1.09,31.26 4.77,54 18.43,71.58c15.64,20.12 42.56,34.52 82.28,44.03zM168.97,331.11l-0.25,-0.93c38.65,-10.51 65.45,-24.37 81.94,-42.37c16.83,-18.37 21.25,-39.67 23.22,-56.17c3.46,-28.94 -1.91,-67.67 -74.69,-110.73c-52.77,-31.22 -60.44,-48.86 -60.74,-49.59l0.89,-0.37c0.07,0.18 7.96,18.14 60.34,49.13c73.26,43.34 78.65,82.45 75.15,111.68c-1.99,16.65 -6.45,38.13 -23.46,56.71c-16.62,18.14 -43.57,32.1 -82.4,42.65zM118.73,330.22l-0.08,-0.96c6.17,-0.55 12.45,-6.56 15.46,-12.22c3.84,-7.22 2.96,-16.51 1.17,-29.85c-0.87,-6.48 -3.69,-20.34 -6.67,-35.01c-4.33,-21.27 -9.23,-45.38 -9.59,-53.81c-0.43,-10.18 7.84,-25.9 15.15,-39.77c2.91,-5.53 5.66,-10.75 7.44,-14.89c5.89,-13.73 9.12,-38.08 8.49,-42.95c-0.59,-4.59 -4.17,-11.01 -4.21,-11.07l0.84,-0.47c0.15,0.27 3.71,6.65 4.32,11.42c0.66,5.09 -2.5,29.32 -8.56,43.46c-1.79,4.18 -4.55,9.41 -7.47,14.96c-6.89,13.08 -15.46,29.36 -15.03,39.28c0.36,8.35 5.25,32.42 9.57,53.66c2.99,14.69 5.81,28.57 6.69,35.08c1.82,13.52 2.71,22.95 -1.27,30.42c-3.04,5.71 -9.41,12.13 -16.22,12.73zM145.7,329.86c-1.69,0 -3.08,-0.27 -3.96,-0.91c-5.02,-3.66 -4.89,-9.62 -4.89,-9.87l0.96,0.03c0,0.06 -0.11,5.71 4.49,9.07c3.82,2.79 20.31,-2.94 26.34,-5.38l0.36,0.89c-0.75,0.3 -15.38,6.18 -23.31,6.18zM107.11,326.68c-0.24,0 -0.39,0 -0.44,0l0.03,-0.96c0.08,0 8.02,0.18 14.4,-2.91l0.62,-0.3c5.99,-2.85 13.45,-6.4 7.03,-50.1c-2.84,-19.3 -6.64,-32.95 -9.7,-43.93c-4.24,-15.21 -7.03,-25.26 -4.31,-38.51c1.87,-9.08 4.56,-13.76 8.29,-20.25c3.69,-6.42 8.29,-14.42 14.28,-30.13c11.94,-31.31 8.74,-41.6 8.71,-41.7l0.91,-0.31c0.14,0.42 3.39,10.59 -8.72,42.35c-6.02,15.78 -10.63,23.82 -14.34,30.27c-3.68,6.4 -6.34,11.03 -8.18,19.96c-2.68,13.02 0.1,22.98 4.29,38.06c3.06,11 6.88,24.69 9.72,44.04c6.53,44.4 -1.29,48.12 -7.57,51.11l-0.62,0.3c-5.8,2.82 -12.63,3.01 -14.41,3.01zM149.98,325.51c-4.92,0 -8.01,-2.77 -10.84,-9.18l0.88,-0.39c3.47,7.85 6.94,9.81 14.31,8.01c7.52,-1.83 28.41,-8.99 35.49,-15.86c0.65,-0.63 1.56,-1.42 2.6,-2.32c11.23,-9.74 41.06,-35.61 28.34,-99.04c-9.74,-48.56 -23.29,-62.65 -37.64,-77.57c-6.22,-6.47 -12.66,-13.16 -18.95,-22.87l0.81,-0.52c6.24,9.64 12.64,16.29 18.84,22.73c14.45,15.02 28.09,29.22 37.89,78.05c12.84,63.98 -17.3,90.11 -28.65,99.95c-1.03,0.9 -1.92,1.67 -2.56,2.28c-7.63,7.41 -29.32,14.5 -35.93,16.1c-1.69,0.41 -3.2,0.63 -4.58,0.63zM101.02,324.86c-7.85,-3.12 -33.8,-21.98 -43.54,-52c-7.33,-22.6 -3.62,-45.77 11.02,-68.86c13.23,-20.86 24.73,-34.44 33.98,-45.36c20.45,-24.15 31.71,-37.45 33.25,-93.48l0.96,0.03c-1.55,56.37 -12.89,69.76 -33.48,94.08c-9.23,10.9 -20.71,24.45 -33.9,45.25c-14.48,22.83 -18.15,45.73 -10.92,68.04c9.63,29.7 35.24,48.32 42.98,51.4zM93.12,323.69c-0.25,-0.09 -25.24,-8.88 -46.26,-29.1c-12.36,-11.9 -20.96,-25.36 -25.55,-40.02c-5.74,-18.33 -5.21,-38.57 1.58,-60.17c6.44,-20.48 22.16,-32.06 42.06,-46.72c19.15,-14.11 42.98,-31.67 65.94,-63.24l0.78,0.57c-23.05,31.69 -46.95,49.3 -66.15,63.44c-19.76,14.56 -35.37,26.06 -41.72,46.24c-6.73,21.4 -7.27,41.44 -1.59,59.57c4.54,14.5 13.05,27.83 25.29,39.61c20.87,20.09 45.68,28.83 45.93,28.91zM104.68,322.79c-20.96,-6.47 -19.16,-30.58 -18.29,-42.17c1.11,-14.77 6.01,-31.34 14.98,-50.66c5.64,-12.15 8.72,-25.42 8.75,-25.55l0.94,0.21c-0.03,0.13 -3.13,13.5 -8.82,25.74c-8.93,19.21 -13.8,35.67 -14.9,50.32c-0.85,11.34 -2.62,34.94 17.61,41.18zM113.1,321.85l-0.16,-0.95c10.77,-1.86 14.29,-13.13 11.43,-36.52c-1.7,-13.86 -3.79,-23.65 -6.21,-34.99c-2.24,-10.47 -4.77,-22.33 -7.48,-39.8l0.95,-0.15c2.7,17.45 5.23,29.29 7.47,39.75c2.43,11.36 4.53,21.17 6.23,35.07c2.94,24.02 -0.83,35.61 -12.22,37.58zM152.16,319.79c-6.31,0 -10.89,-3.9 -13.04,-11.22l0.92,-0.27c2.33,7.93 7.41,11.49 14.69,10.32c6.46,-1.05 33.74,-9.75 39.21,-30.42c4.68,-17.69 3.99,-20.66 0.64,-34.9c-0.55,-2.35 -1.18,-5 -1.86,-8.08c-1.03,-4.63 -2.2,-9.39 -3.32,-13.98c-4.24,-17.32 -8.62,-35.23 -7.66,-53.03c1.2,-22.17 -1.1,-36.93 -7.24,-46.47c-6.04,-9.39 -15.17,-29.45 -15.26,-29.65l0.88,-0.4c0.09,0.2 9.19,20.2 15.2,29.53c6.25,9.72 8.6,24.66 7.39,47.04c-0.96,17.65 3.41,35.49 7.63,52.74c1.13,4.6 2.29,9.36 3.32,14c0.68,3.07 1.31,5.72 1.86,8.07c3.4,14.44 4.1,17.44 -0.64,35.37c-5.6,21.17 -33.41,30.06 -39.99,31.13c-0.94,0.15 -1.85,0.23 -2.73,0.23zM108.82,319.63c-0.15,0 -0.3,0 -0.46,-0.01c-3.35,-0.15 -6.82,-1.83 -8.96,-3.35l0.56,-0.78c1.93,1.38 5.3,3.03 8.44,3.17c2.36,0.1 4.26,-0.62 5.8,-2.23c6.31,-6.56 4.68,-26.03 3.5,-40.25c-0.17,-2.05 -0.33,-4 -0.46,-5.79c-1.23,-17.1 -6.95,-42.86 -7.01,-43.12l0.94,-0.21c0.06,0.26 5.8,26.1 7.03,43.26c0.13,1.79 0.29,3.73 0.46,5.78c1.2,14.4 2.84,34.13 -3.77,41c-1.62,1.68 -3.66,2.53 -6.07,2.53zM86.36,318.33c-31.01,-15.75 -43.74,-49.33 -47.76,-63.03c-8.24,-27.99 4.16,-57.77 37.9,-91.03c40.28,-39.72 53.61,-71.19 53.74,-71.5l0.89,0.37c-0.13,0.32 -13.54,31.97 -53.96,71.82c-33.46,32.99 -45.77,62.45 -37.65,90.07c4,13.58 16.6,46.86 47.28,62.44zM109.1,316.06c-0.53,0 -1.08,-0.08 -1.67,-0.23l0.24,-0.93c1.58,0.41 2.86,0.18 3.9,-0.69c4.67,-3.94 3.37,-19.6 2.51,-29.96c-0.12,-1.44 -0.23,-2.78 -0.32,-3.98c-0.85,-11.82 -3.85,-38.61 -3.88,-38.88l0.96,-0.11c0.03,0.27 3.03,27.07 3.88,38.92c0.08,1.2 0.2,2.53 0.31,3.97c0.88,10.56 2.2,26.52 -2.85,30.78c-0.88,0.74 -1.92,1.12 -3.09,1.12zM189.27,315.6l-0.41,-0.87c35.05,-16.56 67.74,-39.42 69.62,-94.05c0.96,-27.84 -14.98,-50.69 -28.51,-64.95c-14.69,-15.48 -29.79,-24.46 -29.94,-24.54l0.49,-0.83c0.15,0.09 15.37,9.14 30.15,24.71c13.66,14.39 29.74,37.47 28.78,65.64c-0.86,25.03 -8.21,45.17 -22.46,61.58c-14.05,16.18 -32.88,26.3 -47.71,33.31zM103.45,315.59c-18.6,-9.47 -3.97,-57.91 -3.34,-59.97c4.92,-16 9.18,-37.92 9.22,-38.14l0.94,0.18c-0.04,0.22 -4.31,22.19 -9.25,38.24c-5.27,17.16 -11.46,51.54 2.85,58.83zM154.99,315.22c-3.22,0 -5.63,-1.06 -7.32,-2.22c-4.11,-2.83 -6.49,-8.07 -6.22,-13.7c0.58,-11.9 2.98,-48.41 5.48,-75.78c2.42,-26.48 23.74,-52.45 23.95,-52.71l0.74,0.62c-0.21,0.26 -21.34,26.01 -23.74,52.18c-2.5,27.35 -4.9,63.84 -5.48,75.74c-0.26,5.3 1.96,10.22 5.8,12.86c2.66,1.83 7.29,3.36 14.24,0.29c10,-4.42 32.85,-17.48 28.96,-43.29c-1.36,-9.04 -3.81,-17.6 -6.39,-26.66c-4.42,-15.49 -8.99,-31.51 -9.37,-53.07c-0.06,-3.64 -0.03,-7.27 0,-10.78c0.11,-11.38 0.21,-22.13 -3.02,-31.09c-0.91,-2.51 -1.99,-5.79 -3.25,-9.58c-4.51,-13.59 -11.33,-34.12 -18.01,-43.39l0.78,-0.56c6.76,9.39 13.61,30 18.14,43.65c1.26,3.78 2.34,7.05 3.24,9.56c3.29,9.12 3.19,19.96 3.08,31.42c-0.03,3.5 -0.07,7.13 0,10.75c0.38,21.44 4.93,37.4 9.34,52.83c2.59,9.09 5.05,17.68 6.41,26.78c3.99,26.46 -19.32,39.8 -29.52,44.31c-3.01,1.33 -5.62,1.84 -7.85,1.84zM88.64,314.06c-0.47,-0.6 -1.04,-1.31 -1.7,-2.1c-9.97,-12.27 -40.32,-49.6 -17.85,-96.06c8.62,-17.81 19.31,-30.44 29.65,-42.66c18.59,-21.97 36.16,-42.72 41.59,-90.94l0.96,0.11c-5.46,48.52 -23.12,69.38 -41.81,91.46c-10.3,12.17 -20.95,24.75 -29.52,42.46c-22.2,45.9 7.86,82.88 17.74,95.03c0.65,0.8 1.23,1.51 1.7,2.12zM108.35,313c-2.61,0 -4.75,-1.11 -6.37,-3.31c-6.56,-8.89 -2.74,-33.55 -0.04,-42.34c3.39,-11.04 6.83,-35.31 6.86,-35.55l0.95,0.13c-0.03,0.24 -3.49,24.59 -6.9,35.7c-2.66,8.65 -6.46,32.87 -0.1,41.48c1.42,1.93 3.31,2.91 5.59,2.91zM156.71,310.44c-0.76,0 -1.46,-0.12 -2.07,-0.37l0.36,-0.89c1.53,0.62 3.77,0.28 6.48,-0.98c8.1,-3.76 20.06,-15.91 23.34,-25.94c4.01,-12.24 -0.76,-28.96 -7.99,-54.28l-1.15,-4.04c-7.86,-27.6 -4.92,-47.36 -4.89,-47.55l0.95,0.15c-0.03,0.2 -2.93,19.76 4.86,47.14l1.15,4.04c7.28,25.48 12.08,42.32 7.98,54.84c-3.41,10.42 -15.41,22.6 -23.85,26.52c-1.98,0.92 -3.71,1.38 -5.17,1.38zM183.32,310.37l-0.58,-0.77c5.18,-3.87 30.84,-25.28 27.65,-66.82c-1.91,-24.86 -4.8,-33.21 -7.85,-42.05c-1.83,-5.3 -3.73,-10.78 -5.54,-20.04c-4.89,-24.93 -12.54,-40.08 -24.11,-57.83l0.81,-0.52c11.64,17.85 19.33,33.09 24.25,58.17c1.8,9.2 3.69,14.64 5.51,19.91c3.08,8.9 5.98,17.3 7.9,42.29c3.23,42.04 -22.78,63.74 -28.03,67.66zM108.41,309.08c-0.37,0 -0.77,-0.1 -1.2,-0.29l0.4,-0.88c0.58,0.26 1.04,0.26 1.42,0.01c2.04,-1.36 1.83,-9.21 1.7,-13.9c-0.03,-1.13 -0.06,-2.16 -0.06,-3c0,-5.51 -2.29,-36.04 -2.32,-36.35l0.96,-0.07c0.02,0.31 2.32,30.88 2.32,36.42c0,0.83 0.03,1.85 0.06,2.98c0.19,7.15 0.17,13.2 -2.13,14.73c-0.35,0.23 -0.74,0.35 -1.15,0.35zM196.47,308.27l-0.45,-0.85c7.39,-3.86 20.7,-18.65 29.67,-32.97c6.66,-10.63 6.94,-22.61 7.36,-40.75c0.11,-4.72 0.24,-10.08 0.49,-15.83c0.84,-18.74 -4.99,-28.67 -11.73,-40.18c-3.02,-5.15 -6.14,-10.47 -8.95,-17.02c-8.99,-20.96 -39.17,-46.91 -39.47,-47.17l0.63,-0.73c0.31,0.26 30.65,26.36 39.73,47.52c2.79,6.5 5.89,11.79 8.89,16.92c6.82,11.63 12.71,21.68 11.86,40.71c-0.26,5.74 -0.38,11.09 -0.49,15.81c-0.43,18.3 -0.71,30.39 -7.5,41.25c-7.89,12.59 -21.62,28.91 -30.04,33.31zM148.48,306.78c-2.64,-5.16 -1.49,-27.92 3.42,-67.65c0.2,-1.63 0.41,-3.39 0.63,-5.24c1.78,-15.07 4.21,-35.7 10.23,-45.27l0.81,0.51c-5.9,9.38 -8.32,29.9 -10.08,44.87c-0.22,1.85 -0.42,3.61 -0.62,5.24c-6.09,49.25 -5.27,63.67 -3.52,67.09zM105.43,306.59c-7.08,-1.73 -0.51,-38.31 0.26,-42.48l0.95,0.17c-2.97,16 -5.68,40.22 -0.98,41.37zM72.82,306.39c-7.74,-8.39 -18.08,-23.96 -23.87,-42.5c-4.66,-14.91 -7.79,-36.88 3.7,-56.9c8.48,-14.78 19.34,-26.32 30.84,-38.54c16.48,-17.51 33.53,-35.62 44.67,-64.96l0.9,0.34c-11.21,29.52 -28.32,47.7 -44.87,65.28c-11.46,12.18 -22.28,23.68 -30.71,38.36c-11.32,19.72 -8.21,41.41 -3.61,56.14c5.74,18.39 15.98,33.82 23.65,42.13zM91.39,304.02c-0.07,-0.26 -1.79,-6.61 -1.41,-17.92c0.35,-10.41 2.64,-27.14 11.58,-47.69l0.89,0.38c-8.87,20.39 -11.15,36.97 -11.5,47.29c-0.38,11.18 1.36,17.62 1.38,17.68zM83.71,303.32c-0.19,-0.39 -19.41,-39.7 -3.67,-77.34c5.11,-12.21 13.73,-24.2 22.85,-36.89c19.46,-27.05 41.51,-57.71 39.86,-103.36l0.96,-0.03c1.66,45.97 -20.5,76.77 -40.04,103.95c-9.09,12.64 -17.68,24.59 -22.75,36.7c-15.57,37.23 3.45,76.15 3.64,76.54zM60.69,302.89c-13.66,-10.96 -24.39,-29.76 -31.89,-55.88c-7.32,-25.48 15.67,-73.34 29.63,-85.13c13.85,-11.7 40.36,-34.68 40.63,-34.91l0.63,0.73c-0.27,0.23 -26.78,23.22 -40.64,34.92c-13.81,11.67 -36.56,58.97 -29.33,84.13c7.45,25.92 18.07,44.56 31.57,55.39zM107.34,302.6c-2.53,-4.56 -0.49,-22.97 -0.4,-23.76l0.96,0.11c-0.02,0.19 -2.1,18.89 0.29,23.18zM157.85,302.56c-0.42,0 -0.86,-0.06 -1.32,-0.17c-2.98,-0.72 -4.6,-2.03 -3.41,-20.44l0.96,0.06c-1.19,18.5 0.51,18.92 2.67,19.44c3.66,0.89 5.76,-2.76 9.24,-8.82c0.89,-1.56 1.91,-3.33 3.05,-5.17c5.45,-8.82 2.89,-21.36 -2.5,-44.62c-5.44,-23.49 -0.67,-58.42 -0.62,-58.77l0.95,0.13c-0.05,0.35 -4.8,35.1 0.6,58.42c5.44,23.51 8.02,36.2 2.38,45.34c-1.13,1.83 -2.14,3.59 -3.03,5.14c-3.19,5.56 -5.42,9.44 -8.97,9.44zM165.48,301.66l-0.61,-0.75c0.11,-0.09 11.46,-9.49 13.84,-23.92c1.57,-9.57 -1.56,-20.67 -4.34,-30.46c-1.52,-5.36 -2.95,-10.43 -3.59,-14.97c-0.32,-2.24 -0.64,-4.45 -0.95,-6.6c-1.53,-10.44 -2.84,-19.46 -2.34,-25.88l0.96,0.07c-0.5,6.31 0.81,15.28 2.33,25.67c0.32,2.15 0.64,4.36 0.95,6.6c0.63,4.48 2.05,9.51 3.56,14.84c2.8,9.89 5.97,21.1 4.36,30.88c-2.44,14.81 -14.07,24.42 -14.18,24.51zM211.97,299.16l-0.61,-0.74c8.38,-6.89 28.36,-31.98 33.15,-61.67c4.81,-29.76 -3.5,-44.49 -17.25,-68.89l-0.36,-0.63c-13.8,-24.48 -36.19,-40.52 -36.42,-40.68l0.56,-0.79c0.23,0.16 22.79,16.33 36.7,40.99l0.36,0.63c13.86,24.58 22.23,39.42 17.37,69.52c-4.84,29.96 -25.02,55.3 -33.49,62.26zM159.65,294.69l-0.29,-0.92c3.42,-1.11 4.81,-10.35 5.95,-19.72c1.19,-9.87 -4.81,-43.32 -4.87,-43.65l0.95,-0.17c0.25,1.38 6.09,33.92 4.88,43.94c-1.27,10.47 -2.64,19.24 -6.61,20.52zM82.46,294.34c-3.44,-14.5 -3.31,-34.68 20.75,-83.77c2.94,-6 4.57,-12.15 6.15,-18.1c1.65,-6.2 3.2,-12.05 6.06,-16.68l0.82,0.51c-2.78,4.5 -4.32,10.29 -5.94,16.42c-1.59,6 -3.24,12.2 -6.22,18.28c-23.93,48.82 -24.08,68.8 -20.68,83.13zM137.28,288.38c-0.11,-0.74 -10.81,-73.98 4.29,-113.88c11.33,-29.95 15.02,-54.15 10.95,-71.93l0.94,-0.21c4.11,17.97 0.42,42.36 -10.98,72.48c-15.01,39.66 -4.35,112.66 -4.24,113.39zM73.97,287.94c-0.17,-0.32 -16.38,-31.98 -0.62,-67.3c6.38,-14.31 15.19,-24.79 24.52,-35.89c13.6,-16.18 29.01,-34.52 39.19,-68.8l0.92,0.27c-10.24,34.47 -25.72,52.9 -39.38,69.15c-9.28,11.05 -18.05,21.48 -24.38,35.67c-15.57,34.89 0.43,66.15 0.6,66.46zM158.34,286.62l-0.95,-0.16c0.04,-0.21 3.63,-21.22 2.43,-34.61l0.96,-0.09c1.21,13.52 -2.4,34.65 -2.44,34.86zM207.02,285.59l-0.83,-0.48c17.61,-30.35 11.1,-56.12 2.87,-88.75c-0.56,-2.22 -1.13,-4.48 -1.7,-6.77c-8.81,-35.38 -13.04,-40.91 -24.32,-55.68l-1.19,-1.55l0.76,-0.58l1.19,1.55c11.37,14.89 15.63,20.46 24.49,56.03c0.57,2.29 1.14,4.55 1.7,6.77c8.29,32.84 14.83,58.78 -2.97,89.47zM227.67,285.09l-0.71,-0.65c0.25,-0.27 24.85,-27.43 24.85,-55.9c0,-28.02 -9.84,-52.31 -30.95,-76.44l0.72,-0.63c21.28,24.32 31.19,48.81 31.19,77.08c0,28.85 -24.86,56.28 -25.11,56.55zM200.13,284.28l-0.93,-0.23c0.67,-2.7 1.53,-5.01 2.44,-7.44c3.94,-10.57 8.41,-22.55 -4.03,-72.82c-7.73,-31.23 -9.42,-40.54 -10.15,-44.51c-0.46,-2.53 -0.46,-2.53 -1.51,-4.9c-0.47,-1.06 -1.14,-2.57 -2.14,-4.96l0.89,-0.37c1,2.38 1.67,3.89 2.13,4.95c1.09,2.46 1.1,2.51 1.58,5.12c0.72,3.96 2.41,13.25 10.13,44.45c12.51,50.56 7.99,62.69 4,73.39c-0.9,2.41 -1.75,4.69 -2.4,7.34zM140.06,277.68l-0.96,-0.04c0.14,-3.05 0.09,-8.06 0.03,-14.4c-0.2,-21.64 -0.55,-57.87 6.09,-76.29c12.35,-34.27 14.37,-60.19 12.35,-71.96l0.95,-0.16c2.04,11.89 0.02,38 -12.39,72.45c-6.58,18.26 -6.24,54.38 -6.03,75.96c0.06,6.35 0.11,11.37 -0.03,14.45zM223.89,272.04l-0.93,-0.24c12.46,-48.95 2.33,-73.95 -3.11,-87.38c-0.66,-1.63 -1.24,-3.05 -1.7,-4.33l0.91,-0.33c0.46,1.27 1.03,2.67 1.68,4.3c5.48,13.53 15.69,38.73 3.15,87.98zM154.69,270.38h-0.96c0,-5.88 6.43,-64.27 6.71,-66.75l0.96,0.1c-0.07,0.61 -6.7,60.82 -6.7,66.65zM77.76,267.63c-0.02,-0.29 -1.86,-29.42 12.69,-51.78c14.22,-21.88 15.18,-23.58 15.21,-23.64l0.86,0.42c-0.1,0.23 -10.42,23.23 -15.83,36.09c-5.95,14.14 -11.96,31.64 -11.96,38.87zM37.39,263.03c-0.08,-0.23 -8.34,-22.83 -4.1,-40.53c4.93,-20.5 17.22,-41.68 34.61,-59.64c5.16,-5.33 10.11,-10.29 14.9,-15.09c13.08,-13.12 24.38,-24.44 31.97,-35.29l0.79,0.55c-7.64,10.91 -18.96,22.27 -32.07,35.42c-4.78,4.79 -9.73,9.76 -14.89,15.08c-17.28,17.83 -29.48,38.86 -34.37,59.19c-4.18,17.41 3.98,39.74 4.06,39.97zM102.9,198.36c-2.23,3.48 -5.83,9.06 -11.65,18.01c-10.14,15.6 -12.22,34.55 -12.56,44.45c1.92,-8.75 6.53,-21.61 11.1,-32.47c3.69,-8.76 9.65,-22.22 13.11,-29.99zM201.79,259.94l-0.96,-0.07c0.6,-8.77 -2,-20.58 -5.61,-36.92l-0.33,-1.48c-3.53,-16.02 -7.93,-35.95 -9.72,-54.45l0.96,-0.09c1.78,18.44 6.17,38.34 9.7,54.33l0.33,1.48c3.62,16.42 6.24,28.28 5.63,37.19zM50.16,254.05l-0.11,-0.8c-2.44,-17.06 -4.96,-34.71 38.37,-84.4l0.73,0.63c-43.04,49.36 -40.55,66.78 -38.15,83.63l0.11,0.8zM131.38,252.89c-0.04,-0.2 -3.86,-19.79 -4.46,-38.55c-0.62,-19.44 0.83,-27.77 12.24,-49.36c11.39,-21.54 11.52,-49.8 11.52,-50.08h0.96c0,0.29 -0.13,28.78 -11.63,50.53c-11.31,21.39 -12.75,29.64 -12.13,48.88c0.6,18.68 4.41,38.2 4.44,38.39zM237.71,251.35l-0.92,-0.3c3.86,-11.87 3.14,-31.6 -2.03,-55.57c-5.39,-25.03 -27.69,-49.84 -27.91,-50.09l0.71,-0.65c0.23,0.25 22.69,25.25 28.14,50.53c5.2,24.13 5.91,44.04 2,56.06zM143.3,239.2l-0.96,-0.03c0.99,-27.35 8.69,-52.13 13.78,-68.52c1.23,-3.96 2.29,-7.37 3.11,-10.31c4.04,-14.59 3.13,-23.78 1.98,-35.41l-0.17,-1.7l0.96,-0.09l0.17,1.7c1.16,11.73 2.08,21 -2.01,35.76c-0.82,2.95 -1.88,6.37 -3.11,10.33c-5.08,16.35 -12.76,41.05 -13.74,68.27zM23.09,231.51l-0.96,-0.04c0.72,-18.25 5.35,-43.91 23.29,-62.46l0.69,0.67c-17.73,18.33 -22.3,43.74 -23.02,61.83zM154.66,191.37l-0.9,-0.34c1.17,-3.13 2.76,-6.26 4.45,-9.58c5.43,-10.68 11.58,-22.79 7.9,-42.01l0.92,-0.27c0.02,0.05 2.07,5.11 3.12,11.48c1.39,8.49 0.38,15.46 -2.93,20.17l-0.79,-0.55c4.89,-6.95 3.47,-17.44 1.76,-24.19c-0.1,-0.39 -0.22,-0.36 -0.19,0.02c1.29,15.68 -4.1,26.3 -8.93,35.8c-1.67,3.29 -3.25,6.4 -4.41,9.48zM44.83,159.08l-0.58,-0.77c0.33,-0.25 33.05,-25.15 46.31,-35.1l0.58,0.77c-13.25,9.95 -45.97,34.85 -46.3,35.1zM142.84,61.61c-0.01,-0.12 -0.78,-12.62 1.04,-24.37c1.42,-9.16 0.12,-15.54 -0.49,-17.82c-1.17,1.77 -3.8,6.17 -3.8,10.15h-0.96c0,-5.42 4.32,-11.2 4.55,-11.53c0.23,-0.34 0.71,-0.37 0.84,0.12c0.13,0.49 2.64,7.4 0.82,19.23c-1.8,11.65 -1.03,24.04 -1.03,24.16zM134.79,58.36l-0.94,-0.22c0.02,-0.11 2.38,-10.75 -3.72,-29.93l0.92,-0.29c6.19,19.47 3.85,30 3.74,30.44z" />
		<path id="Path 2" class="shp1" d="M203.68,249.31v-7.15c0.77,0 1.14,0.02 1.41,0.02c2.63,0 4.06,-1.18 4.06,-3.77v-42.82h7.52v41.44c0,8.19 -3.66,12.28 -9.5,12.28zM225.14,195.6h17.62v7.07h-10.1v16.29h8.49v7.07h-8.49v16.29h10.1v7.07h-17.62zM179.39,195.6h17.62v7.07h-10.1v16.29h8.49v7.07h-8.49v16.29h10.1v7.07h-17.62zM183.53,253.94h9.46l5.09,9.6h-7.03l-2.83,-6.3l-2.83,6.3h-7.03zM157.45,202.67h-7.19v-7.07h21.82v7.07h-7.11v46.71h-7.52zM131.85,195.6h7.52l8.24,53.78h-7.52l-1.21,-8.45h-6.63l-1.13,8.45h-7.52zM138.15,233.86l-2.59,-18.75l-2.51,18.75zM85.07,195.6h8.16l6.79,36.42l6.22,-36.42h8.73v53.78h-6.87v-32.8l-5.66,32.8h-4.85l-5.66,-32.8v32.8h-6.87zM48.69,195.6v44.87c0,1.54 1.13,2.61 2.67,2.61c1.61,0 2.75,-1.08 2.75,-2.61v-44.87h7.52v44.87c0,5.61 -4.36,9.68 -10.26,9.68c-5.9,0 -10.18,-4.07 -10.18,-9.68v-44.87z" />
	</g>
</svg>