<?xml version="1.0" encoding="UTF-8" standalone="no"?><!DOCTYPE svg PUBLIC "-//W3C//DTD SVG 1.1//EN" "http://www.w3.org/Graphics/SVG/1.1/DTD/svg11.dtd"><svg width="100%" height="100%" viewBox="0 0 29 29" version="1.1" xmlns="http://www.w3.org/2000/svg" xmlns:xlink="http://www.w3.org/1999/xlink" xml:space="preserve" xmlns:serif="http://www.serif.com/" style="fill-rule:evenodd;clip-rule:evenodd;stroke-linejoin:round;stroke-miterlimit:1.41421;"><path id="Shape-579" serif:id="Shape 579" d="M14.558,0c-8.042,0 -14.558,6.512 -14.558,14.548c0,8.036 6.516,14.548 14.558,14.548c8.042,0 14.558,-6.512 14.558,-14.548c0,-8.036 -6.516,-14.548 -14.558,-14.548Zm0,27.35c-7.075,0 -12.811,-5.732 -12.811,-12.802c0,-7.07 5.736,-12.802 12.811,-12.802c7.075,0 12.811,5.732 12.811,12.802c0,7.07 -5.736,12.802 -12.811,12.802Zm3.18,-19.203l0,2.205l-1.183,0c-0.885,0 -0.943,0.309 -0.943,0.885l-0.006,1.105l2.149,0l-0.25,2.206l-1.893,0l0,6.401l-2.836,0l0,-6.401l-1.421,0l0,-2.206l1.41,0l0,-1.327c0,-1.797 0.803,-2.868 3.08,-2.868l1.893,0Z"/></svg>