<?xml version="1.0" encoding="UTF-8" standalone="no"?><!DOCTYPE svg PUBLIC "-//W3C//DTD SVG 1.1//EN" "http://www.w3.org/Graphics/SVG/1.1/DTD/svg11.dtd"><svg width="100%" height="100%" viewBox="0 0 29 29" version="1.1" xmlns="http://www.w3.org/2000/svg" xmlns:xlink="http://www.w3.org/1999/xlink" xml:space="preserve" xmlns:serif="http://www.serif.com/" style="fill-rule:evenodd;clip-rule:evenodd;stroke-linejoin:round;stroke-miterlimit:1.41421;"><path id="Shape-578" serif:id="Shape 578" d="M14.618,29.249c-8.129,0.041 -14.808,-6.724 -14.614,-14.973c0.176,-7.862 6.697,-14.375 14.814,-14.275c8.017,0.1 14.637,6.771 14.426,15.02c-0.2,7.833 -6.656,14.264 -14.626,14.228Zm-12.836,-14.627c0.053,7.193 5.746,12.803 12.584,12.902c7.254,0.106 13.076,-5.615 13.093,-12.878c0.006,-7.2 -5.739,-12.791 -12.589,-12.926c-7.048,-0.135 -13.029,5.533 -13.088,12.902Zm21.892,0.2c0,1.279 -0.035,2.564 0.006,3.843c0.088,2.458 -1.685,4.512 -4.026,5.098c-0.458,0.118 -0.945,0.188 -1.415,0.194c-2.482,0.018 -4.965,0.041 -7.448,0c-2.071,-0.035 -3.703,-0.915 -4.806,-2.705c-0.423,-0.686 -0.634,-1.449 -0.634,-2.259c-0.006,-2.786 -0.03,-5.574 0.006,-8.355c0.023,-1.818 0.933,-3.162 2.441,-4.124c0.939,-0.599 1.978,-0.869 3.087,-0.869c2.424,-0.006 4.848,-0.029 7.272,0.006c2.136,0.029 3.827,0.921 4.924,2.799c0.393,0.674 0.593,1.42 0.593,2.212c-0.006,1.385 0,2.775 0,4.16Zm-16.973,-0.012c0,1.338 0,2.681 0,4.019c0,0.534 0.099,1.05 0.352,1.526c0.81,1.525 2.136,2.217 3.809,2.241c2.424,0.035 4.854,0.018 7.277,0c0.417,0 0.84,-0.071 1.245,-0.176c1.614,-0.434 2.987,-1.831 2.94,-3.878c-0.059,-2.582 -0.012,-5.164 -0.012,-7.745c0,-0.57 -0.105,-1.109 -0.381,-1.608c-0.828,-1.484 -2.148,-2.159 -3.792,-2.182c-2.418,-0.036 -4.83,-0.024 -7.248,0c-0.481,0.005 -0.974,0.093 -1.438,0.234c-1.578,0.487 -2.823,1.889 -2.758,3.779c0.041,1.267 0.006,2.529 0.006,3.79Zm7.811,-4.583c2.389,-0.005 4.326,1.901 4.326,4.248c-0.006,2.336 -1.937,4.243 -4.302,4.248c-2.383,0.006 -4.314,-1.895 -4.314,-4.253c0,-2.342 1.913,-4.236 4.29,-4.243Zm0,1.362c-1.608,0.006 -2.934,1.314 -2.928,2.893c0.006,1.578 1.326,2.874 2.946,2.88c1.614,0 2.94,-1.297 2.946,-2.875c-0.006,-1.602 -1.338,-2.904 -2.964,-2.898Zm5.734,-1.731c0.012,0.499 -0.399,0.939 -0.886,0.956c-0.499,0.018 -0.927,-0.404 -0.933,-0.927c-0.006,-0.51 0.387,-0.939 0.875,-0.956c0.498,-0.018 0.933,0.411 0.944,0.927Z"/></svg>